<?xml version="1.0" encoding="utf-8"?>
<!-- Generator: Adobe Illustrator 23.0.5, SVG Export Plug-In . SVG Version: 6.00 Build 0)  -->
<svg version="1.1" id="Capa_1" xmlns="http://www.w3.org/2000/svg" xmlns:xlink="http://www.w3.org/1999/xlink" x="0px" y="0px"
	 viewBox="0 0 1109 252" style="enable-background:new 0 0 1109 252;" xml:space="preserve">
<style type="text/css">
	.st0{fill:url(#SVGID_1_);}
	.st1{fill:url(#SVGID_2_);}
	.st2{fill:url(#SVGID_3_);}
	.st3{fill:url(#SVGID_4_);}
	.st4{fill:url(#SVGID_5_);}
	.st5{fill:#0000DC;}
</style>
<g>
	<linearGradient id="SVGID_1_" gradientUnits="userSpaceOnUse" x1="-16.7771" y1="196.0002" x2="123.0262" y2="56.1969">
		<stop  offset="0" style="stop-color:#EB1AA1"/>
		<stop  offset="1" style="stop-color:#72BCF0"/>
	</linearGradient>
	<path class="st0" d="M30.24,237.29l11.52,1.25c10.09,1.1,19.16-6.19,20.26-16.28l22.2-204.3c0.06-0.58-0.36-1.11-0.94-1.17
		l-11.52-1.25c-19.6-2.13-37.21,12.03-39.34,31.63L13.96,217.03C12.86,227.12,20.15,236.19,30.24,237.29z"/>
	<linearGradient id="SVGID_2_" gradientUnits="userSpaceOnUse" x1="90.3398" y1="214.2812" x2="200.9473" y2="103.6737">
		<stop  offset="0" style="stop-color:#EB1AA1"/>
		<stop  offset="1" style="stop-color:#72BCF0"/>
	</linearGradient>
	<path class="st1" d="M112.72,236.66l14.48,1.57c18.55,2.02,35.21-11.38,37.23-29.93L178.21,81.5c0.06-0.58-0.36-1.11-0.94-1.17
		l-11.52-1.25c-19.6-2.13-37.21,12.03-39.34,31.63L112.72,236.66z"/>
	<linearGradient id="SVGID_3_" gradientUnits="userSpaceOnUse" x1="211.1729" y1="152.2284" x2="271.0158" y2="212.0713">
		<stop  offset="0" style="stop-color:#EB1AA1"/>
		<stop  offset="1" style="stop-color:#72BCF0"/>
	</linearGradient>
	<path class="st2" d="M216.17,234.73l11.52,1.25c20.18,2.19,38.32-12.39,40.51-32.57l6.21-57.13c0.94-8.64-5.31-16.41-13.95-17.35
		l-15.2-1.65c-9.51-1.03-18.05,5.84-19.08,15.34L216.17,234.73z"/>
	<linearGradient id="SVGID_4_" gradientUnits="userSpaceOnUse" x1="34.9824" y1="65.6814" x2="159.4395" y2="190.1384">
		<stop  offset="0" style="stop-color:#0000DC"/>
		<stop  offset="0.1191" style="stop-color:#0305DD"/>
		<stop  offset="0.2676" style="stop-color:#0D15DE"/>
		<stop  offset="0.4317" style="stop-color:#1C2EE1"/>
		<stop  offset="0.6072" style="stop-color:#3152E5"/>
		<stop  offset="0.7916" style="stop-color:#4D7FEA"/>
		<stop  offset="0.9808" style="stop-color:#6EB6EF"/>
		<stop  offset="1" style="stop-color:#72BCF0"/>
	</linearGradient>
	<path class="st3" d="M72.61,122.43L83.4,17.27c0-0.03,0.52-0.09,0.53-0.05l38.92,126.2c0,0.02-5.22,48.91-5.24,48.91l-4.72,44.36
		c-2.48-0.01-5.1,0.2-5.68-1.68l-34.6-112.56C72.62,122.44,72.62,122.44,72.61,122.43z"/>
	<linearGradient id="SVGID_5_" gradientUnits="userSpaceOnUse" x1="148.7443" y1="109.4705" x2="245.0876" y2="205.8138">
		<stop  offset="0" style="stop-color:#4A3ADA"/>
		<stop  offset="0" style="stop-color:#4536DD"/>
		<stop  offset="0" style="stop-color:#352AE4"/>
		<stop  offset="0" style="stop-color:#1C16F1"/>
		<stop  offset="0" style="stop-color:#0101FF"/>
		<stop  offset="0" style="stop-color:#0101F8"/>
		<stop  offset="0" style="stop-color:#0000E5"/>
		<stop  offset="0" style="stop-color:#0000DC"/>
		<stop  offset="0.1147" style="stop-color:#0406DD"/>
		<stop  offset="0.2652" style="stop-color:#0E16DE"/>
		<stop  offset="0.4355" style="stop-color:#1E31E1"/>
		<stop  offset="0.6205" style="stop-color:#3557E5"/>
		<stop  offset="0.815" style="stop-color:#5287EA"/>
		<stop  offset="1" style="stop-color:#72BCF0"/>
	</linearGradient>
	<polygon class="st4" points="223.39,168.35 216.17,234.73 170.47,152.72 177.66,80.56 	"/>
</g>
<g>
	<g>
		<path class="st5" d="M329.02,189.53L355,101.58h12.21l25.98,87.95l22.41-87.95h18.48l-30.95,112.17h-18.13l-23.36-78.38
			l-24.41,78.38h-18.13l-30.95-112.17h18.48L329.02,189.53z"/>
		<path class="st5" d="M487.69,214.91c-12.61,0-22.38-3.11-29.29-9.33c-6.92-6.22-10.37-15.07-10.37-26.54v-9.03
			c0-11.93,3.33-21.16,9.98-27.7c6.65-6.53,16.03-9.8,28.12-9.8c11.39,0,20.21,3.7,26.46,11.11c6.25,7.41,9.37,17.8,9.37,31.17v5.25
			h-61.03v-12.65h44.11c-0.52-6.48-2.43-11.55-5.71-15.2c-3.28-3.65-7.69-5.48-13.21-5.48c-6.68,0-11.89,1.96-15.6,5.86
			c-3.72,3.91-5.58,9.44-5.58,16.59v10.18c0,6.63,1.99,11.73,5.97,15.27c3.98,3.55,9.58,5.32,16.78,5.32c3.6,0,7.18-0.64,10.72-1.93
			c3.54-1.28,6.71-3.09,9.5-5.4l11.68,10.34c-4.48,3.81-9.5,6.75-15.08,8.83C498.94,213.86,493.33,214.91,487.69,214.91z"/>
		<path class="st5" d="M564.15,101.58v91.5c0,1.9,0.48,3.39,1.44,4.47s2.31,1.62,4.05,1.62h8.37v14.97h-10.46
			c-6.68,0-11.89-1.85-15.61-5.55s-5.58-8.92-5.58-15.66v-91.34H564.15z"/>
		<path class="st5" d="M615.84,101.58v91.5c0,1.9,0.48,3.39,1.44,4.47s2.31,1.62,4.05,1.62h8.37v14.97h-10.46
			c-6.68,0-11.89-1.85-15.61-5.55c-3.72-3.7-5.58-8.92-5.58-15.66v-91.34H615.84z"/>
		<path class="st5" d="M651.5,213.75V101.58h17.79v112.17H651.5z M662.57,166v-14.97h70.35V166H662.57z M723.51,213.75V101.58h17.79
			v112.17H723.51z"/>
		<path class="st5" d="M805.64,214.91c-11.86,0-21.04-3.05-27.55-9.14c-6.51-6.09-9.76-14.67-9.76-25.73V167
			c0-10.95,3.25-19.44,9.76-25.46c6.51-6.02,15.69-9.03,27.55-9.03s21.04,3.01,27.55,9.03c6.51,6.02,9.76,14.5,9.76,25.46v13.27
			c0,11.01-3.26,19.53-9.76,25.57C826.68,211.89,817.49,214.91,805.64,214.91z M805.64,199.94c6.22,0,11.03-1.72,14.43-5.17
			c3.4-3.44,5.1-8.28,5.1-14.5V167c0-6.22-1.7-11.03-5.1-14.43s-8.21-5.09-14.43-5.09c-6.16,0-10.96,1.7-14.38,5.09
			c-3.43,3.39-5.14,8.2-5.14,14.43v13.27c0,6.22,1.71,11.06,5.14,14.5C794.68,198.22,799.48,199.94,805.64,199.94z"/>
		<path class="st5" d="M868.23,213.75v-80.08h17.78v80.08H868.23z M922.29,213.75v-48.53c0-5.66-1.57-10.03-4.71-13.11
			s-7.58-4.63-13.34-4.63c-5.81,0-10.3,1.36-13.47,4.09c-3.17,2.73-4.75,6.56-4.75,11.49l-1.83-15.43
			c2.79-4.83,6.44-8.56,10.94-11.19c4.5-2.62,9.49-3.93,14.95-3.93c9.53,0,16.91,2.84,22.14,8.52c5.23,5.68,7.85,13.72,7.85,24.11
			v48.6H922.29z M976.34,213.75v-48.53c0-5.66-1.64-10.03-4.93-13.11c-3.28-3.09-7.95-4.63-13.99-4.63c-5.52,0-9.79,1.49-12.82,4.47
			c-3.02,2.98-4.53,7.2-4.53,12.65l-3.57-15.43c2.91-5.35,6.68-9.46,11.33-12.34c4.65-2.88,9.79-4.32,15.43-4.32
			c9.82,0,17.42,2.84,22.8,8.52c5.38,5.68,8.06,13.72,8.06,24.11v48.6H976.34z"/>
		<path class="st5" d="M1058.2,214.91c-12.61,0-22.38-3.11-29.29-9.33c-6.92-6.22-10.38-15.07-10.38-26.54v-9.03
			c0-11.93,3.33-21.16,9.98-27.7c6.65-6.53,16.03-9.8,28.12-9.8c11.39,0,20.21,3.7,26.46,11.11c6.25,7.41,9.37,17.8,9.37,31.17v5.25
			h-61.03v-12.65h44.11c-0.52-6.48-2.43-11.55-5.71-15.2c-3.29-3.65-7.69-5.48-13.21-5.48c-6.68,0-11.89,1.96-15.61,5.86
			c-3.72,3.91-5.58,9.44-5.58,16.59v10.18c0,6.63,1.99,11.73,5.97,15.27c3.98,3.55,9.57,5.32,16.78,5.32c3.6,0,7.18-0.64,10.72-1.93
			c3.54-1.28,6.71-3.09,9.5-5.4l11.68,10.34c-4.48,3.81-9.5,6.75-15.08,8.83C1069.45,213.86,1063.84,214.91,1058.2,214.91z"/>
	</g>
</g>
</svg>
