<?xml version="1.0" encoding="utf-8"?>
<!-- Generator: Adobe Illustrator 23.0.5, SVG Export Plug-In . SVG Version: 6.00 Build 0)  -->
<svg version="1.1" id="Capa_1" xmlns="http://www.w3.org/2000/svg" xmlns:xlink="http://www.w3.org/1999/xlink" x="0px" y="0px"
	 viewBox="0 0 291 252" style="enable-background:new 0 0 291 252;" xml:space="preserve">
<style type="text/css">
	.st0{fill:url(#SVGID_1_);}
	.st1{fill:url(#SVGID_2_);}
	.st2{fill:url(#SVGID_3_);}
	.st3{fill:url(#SVGID_4_);}
	.st4{fill:url(#SVGID_5_);}
</style>
<g>
	<linearGradient id="SVGID_1_" gradientUnits="userSpaceOnUse" x1="-16.7771" y1="196.0002" x2="123.0262" y2="56.1969">
		<stop  offset="0" style="stop-color:#EB1AA1"/>
		<stop  offset="1" style="stop-color:#72BCF0"/>
	</linearGradient>
	<path class="st0" d="M30.24,237.29l11.52,1.25c10.09,1.1,19.16-6.19,20.26-16.28l22.2-204.3c0.06-0.58-0.36-1.11-0.94-1.17
		l-11.52-1.25c-19.6-2.13-37.21,12.03-39.34,31.63L13.96,217.03C12.86,227.12,20.15,236.19,30.24,237.29z"/>
	<linearGradient id="SVGID_2_" gradientUnits="userSpaceOnUse" x1="90.3398" y1="214.2812" x2="200.9473" y2="103.6737">
		<stop  offset="0" style="stop-color:#EB1AA1"/>
		<stop  offset="1" style="stop-color:#72BCF0"/>
	</linearGradient>
	<path class="st1" d="M112.72,236.66l14.48,1.57c18.55,2.02,35.21-11.38,37.23-29.93L178.21,81.5c0.06-0.58-0.36-1.11-0.94-1.17
		l-11.52-1.25c-19.6-2.13-37.21,12.03-39.34,31.63L112.72,236.66z"/>
	<linearGradient id="SVGID_3_" gradientUnits="userSpaceOnUse" x1="211.1729" y1="152.2284" x2="271.0158" y2="212.0713">
		<stop  offset="0" style="stop-color:#EB1AA1"/>
		<stop  offset="1" style="stop-color:#72BCF0"/>
	</linearGradient>
	<path class="st2" d="M216.17,234.73l11.52,1.25c20.18,2.19,38.32-12.39,40.51-32.57l6.21-57.13c0.94-8.64-5.31-16.41-13.95-17.35
		l-15.2-1.65c-9.51-1.03-18.05,5.84-19.08,15.34L216.17,234.73z"/>
	<linearGradient id="SVGID_4_" gradientUnits="userSpaceOnUse" x1="34.9824" y1="65.6814" x2="159.4395" y2="190.1384">
		<stop  offset="0" style="stop-color:#0000DC"/>
		<stop  offset="0.1191" style="stop-color:#0305DD"/>
		<stop  offset="0.2676" style="stop-color:#0D15DE"/>
		<stop  offset="0.4317" style="stop-color:#1C2EE1"/>
		<stop  offset="0.6072" style="stop-color:#3152E5"/>
		<stop  offset="0.7916" style="stop-color:#4D7FEA"/>
		<stop  offset="0.9808" style="stop-color:#6EB6EF"/>
		<stop  offset="1" style="stop-color:#72BCF0"/>
	</linearGradient>
	<path class="st3" d="M72.61,122.43L83.4,17.27c0-0.03,0.52-0.09,0.53-0.05l38.92,126.2c0,0.02-5.22,48.91-5.24,48.91l-4.72,44.36
		c-2.48-0.01-5.1,0.2-5.68-1.68l-34.6-112.56C72.62,122.44,72.62,122.44,72.61,122.43z"/>
	<linearGradient id="SVGID_5_" gradientUnits="userSpaceOnUse" x1="148.7443" y1="109.4705" x2="245.0876" y2="205.8138">
		<stop  offset="0" style="stop-color:#4A3ADA"/>
		<stop  offset="0" style="stop-color:#4536DD"/>
		<stop  offset="0" style="stop-color:#352AE4"/>
		<stop  offset="0" style="stop-color:#1C16F1"/>
		<stop  offset="0" style="stop-color:#0101FF"/>
		<stop  offset="0" style="stop-color:#0101F8"/>
		<stop  offset="0" style="stop-color:#0000E5"/>
		<stop  offset="0" style="stop-color:#0000DC"/>
		<stop  offset="0.1147" style="stop-color:#0406DD"/>
		<stop  offset="0.2652" style="stop-color:#0E16DE"/>
		<stop  offset="0.4355" style="stop-color:#1E31E1"/>
		<stop  offset="0.6205" style="stop-color:#3557E5"/>
		<stop  offset="0.815" style="stop-color:#5287EA"/>
		<stop  offset="1" style="stop-color:#72BCF0"/>
	</linearGradient>
	<polygon class="st4" points="223.39,168.35 216.17,234.73 170.47,152.72 177.66,80.56 	"/>
</g>
</svg>
